<?xml version="1.0" encoding="UTF-8"?>
<svg width="189px" height="215px" viewBox="0 0 189 215" version="1.1" xmlns="http://www.w3.org/2000/svg" xmlns:xlink="http://www.w3.org/1999/xlink">
    <!-- Generator: Sketch 43.2 (39069) - http://www.bohemiancoding.com/sketch -->
    <title>Ø Copy</title>
    <desc>Created with Sketch.</desc>
    <defs></defs>
    <g id="Page-1" stroke="none" stroke-width="1" fill="none" fill-rule="evenodd">
        <path d="M0.88,107.28 C0.88,91.6159217 3.56397316,77.7560603 8.932,65.7 C14.3000268,53.6439397 21.383956,43.4800414 30.184,35.208 C38.984044,26.9359586 49.0159437,20.6440216 60.28,16.332 C71.5440563,12.0199784 83.071941,9.864 94.864,9.864 C103.840045,9.864 112.595957,11.0959877 121.132,13.56 C129.668043,16.0240123 137.719962,19.6319762 145.288,24.384 L164.296,0.096 L182.248,13.824 L162.976,38.64 C170.89604,46.9120414 177.187977,56.7679428 181.852,68.208 C186.516023,79.6480572 188.848,92.671927 188.848,107.28 C188.848,122.944078 186.164027,136.847939 180.796,148.992 C175.427973,161.136061 168.344044,171.343959 159.544,179.616 C150.743956,187.888041 140.712056,194.179978 129.448,198.492 C118.183944,202.804022 106.656059,204.96 94.864,204.96 C86.063956,204.96 77.4400422,203.772012 68.992,201.396 C60.5439578,199.019988 52.5360378,195.544023 44.968,190.968 L27.016,214.464 L8.536,201 L27.28,176.712 C19.3599604,168.439959 12.9800242,158.540058 8.14,147.012 C3.2999758,135.483942 0.88,122.240075 0.88,107.28 Z M27.28,107.28 C27.28,117.840053 28.6439864,127.211959 31.372,135.396 C34.1000136,143.580041 37.9279754,150.751969 42.856,156.912 L130.504,43.656 C119.767946,36.9679666 107.888065,33.624 94.864,33.624 C86.063956,33.624 77.6160405,35.1639846 69.52,38.244 C61.4239595,41.3240154 54.2520312,45.9439692 48.004,52.104 C41.7559688,58.2640308 36.7400189,65.9639538 32.956,75.204 C29.1719811,84.4440462 27.28,95.1359393 27.28,107.28 Z M162.448,107.28 C162.448,97.071949 161.084014,87.96404 158.356,79.956 C155.627986,71.94796 151.976023,64.8640308 147.4,58.704 L59.752,171.96 C65.0320264,175.128016 70.6639701,177.459993 76.648,178.956 C82.6320299,180.452007 88.7039692,181.2 94.864,181.2 C103.488043,181.2 111.891959,179.660015 120.076,176.58 C128.260041,173.499985 135.475969,168.836031 141.724,162.588 C147.972031,156.339969 152.987981,148.596046 156.772,139.356 C160.556019,130.115954 162.448,119.424061 162.448,107.28 Z" id="Ø-Copy" fill="#FFFFFF"></path>
    </g>
</svg>